<svg width="400" height="400" viewBox="0 0 400 400" xmlns="http://www.w3.org/2000/svg">
  <!-- Background circle -->
  <circle cx="200" cy="200" r="200" fill="#0F172A" />
  
  <!-- Gradient overlay -->
  <circle cx="200" cy="200" r="200" fill="url(#grad1)" opacity="0.7" />
  
  <!-- Avatar silhouette -->
  <path d="M200 240C244.183 240 280 204.183 280 160C280 115.817 244.183 80 200 80C155.817 80 120 115.817 120 160C120 204.183 155.817 240 200 240Z" fill="#E2E8F0"/>
  <path d="M200 260C133.726 260 80 313.726 80 380H320C320 313.726 266.274 260 200 260Z" fill="#E2E8F0"/>
  
  <!-- Decorative elements -->
  <circle cx="320" cy="100" r="20" fill="#8B5CF6" opacity="0.8" />
  <circle cx="80" cy="300" r="30" fill="#EC4899" opacity="0.8" />
  <circle cx="280" cy="320" r="15" fill="#38BDF8" opacity="0.8" />
  
  <!-- Text -->
  <text x="200" y="340" font-family="Arial" font-size="24" font-weight="bold" fill="white" text-anchor="middle">Navi Naveen</text>
  
  <!-- Gradients -->
  <defs>
    <linearGradient id="grad1" x1="0%" y1="0%" x2="100%" y2="100%">
      <stop offset="0%" style="stop-color:#38BDF8;stop-opacity:0.5" />
      <stop offset="50%" style="stop-color:#8B5CF6;stop-opacity:0.5" />
      <stop offset="100%" style="stop-color:#EC4899;stop-opacity:0.5" />
    </linearGradient>
  </defs>
</svg>